<svg width="2000" height="1400" xmlns="http://www.w3.org/2000/svg"><defs><linearGradient id="a" gradientTransform="rotate(90)"><stop offset="5%" stop-color="#dfeee4"/><stop offset="95%" stop-color="#e7f2ea"/></linearGradient><linearGradient id="b" gradientTransform="rotate(90)"><stop offset="5%" stop-color="#c7ddd0"/><stop offset="95%" stop-color="#d5e5db"/></linearGradient><linearGradient id="c" gradientTransform="rotate(90)"><stop offset="5%" stop-color="#b0ccbc"/><stop offset="95%" stop-color="#c3d8cc"/></linearGradient><linearGradient id="d" gradientTransform="rotate(90)"><stop offset="5%" stop-color="#a4c3b2"/><stop offset="95%" stop-color="#bad2c5"/></linearGradient><linearGradient id="e" gradientTransform="rotate(90)"><stop offset="5%" stop-color="#a4c3b2"/><stop offset="95%" stop-color="#bad2c5"/></linearGradient><linearGradient id="f" gradientTransform="rotate(90)"><stop offset="5%" stop-color="#a4c3b2"/><stop offset="95%" stop-color="#bad2c5"/></linearGradient><linearGradient id="g" gradientTransform="rotate(90)"><stop offset="5%" stop-color="#a4c3b2"/><stop offset="95%" stop-color="#bad2c5"/></linearGradient></defs><path fill="#f6fff8" d="M0 0h2000v1400H0z"/><path d="M0 175c23.708 3.828 47.416 7.655 71 13 23.584 5.345 47.043 12.207 72 13 24.957.793 51.41-4.482 77-9 25.59-4.518 50.315-8.279 75-5 24.685 3.279 49.329 13.596 73 11s46.37-18.106 71-25c24.63-6.894 51.191-5.172 76 5 24.809 10.172 47.866 28.794 72 21 24.134-7.794 49.346-42.005 75-47 25.654-4.995 51.75 19.227 77 30s49.655 8.097 75 1c25.345-7.097 51.629-18.616 75-18 23.371.616 43.83 13.366 69 18s55.053 1.153 81 2c25.947.847 47.958 6.023 70 10 22.042 3.977 44.114 6.754 70 5 25.886-1.754 55.587-8.04 81-21 25.413-12.96 46.539-32.593 72-28 25.461 4.593 55.257 33.41 79 34 23.743.59 41.432-27.05 65-32 23.568-4.95 53.016 12.793 79 27s48.504 24.88 72 20c23.496-4.88 47.967-25.31 74-24 26.033 1.31 53.627 24.361 80 22 26.373-2.361 51.523-30.136 76-32 24.477-1.864 48.279 22.182 72 28 23.721 5.818 47.36-6.59 111-19l-40 1225H0Z" fill="url(#a)"/><path d="M0 350c22.844-3.33 45.688-6.66 72-11 26.312-4.34 56.093-9.693 80-6 23.907 3.693 41.942 16.43 66 14 24.058-2.43 54.14-20.027 80-22 25.86-1.973 47.5 11.68 73 22s54.858 17.31 78 20c23.142 2.69 40.067 1.08 64-7s54.873-22.63 81-24c26.127-1.37 47.442 10.439 72 12s52.358-7.125 77-6c24.642 1.125 46.124 12.06 71 12 24.876-.06 53.145-11.115 78-16 24.855-4.885 46.294-3.602 69-7 22.706-3.398 46.678-11.48 71-2 24.322 9.48 48.994 36.518 75 38 26.006 1.482 53.346-22.594 78-28 24.654-5.406 46.623 7.859 70 12 23.377 4.141 48.163-.84 73-7 24.837-6.16 49.727-13.495 74-10 24.273 3.495 47.93 17.822 74 17 26.07-.822 54.555-16.792 80-15 25.445 1.792 47.85 21.348 71 19 23.15-2.348 47.046-26.599 73-29s53.967 17.047 78 30 44.086 19.41 68 20c23.914.59 51.69-4.689 78-10 26.31-5.311 51.155-10.656 116-16l-40 1050H0Z" fill="url(#b)"/><path d="M0 525c27.164 1.871 54.327 3.743 78 2 23.673-1.743 43.855-7.099 67-9 23.145-1.901 49.252-.347 75-4 25.748-3.653 51.138-12.512 77-4 25.862 8.512 52.195 34.394 77 35 24.805.606 48.08-24.063 72-35 23.92-10.937 48.484-8.143 73-11 24.516-2.857 48.984-11.366 72 2s44.58 48.605 71 49c26.42.395 57.695-34.054 83-35 25.305-.946 44.638 31.613 68 32 23.362.387 50.753-31.396 75-41s45.35 2.97 70 5 52.847-6.487 79-12 50.264-8.024 75 6c24.736 14.024 50.098 44.583 76 41 25.902-3.583 52.343-41.307 76-46 23.657-4.693 44.53 23.646 68 40s49.54 20.722 76 10c26.46-10.722 53.311-36.535 76-47 22.689-10.465 41.214-5.58 66-4s55.832-.142 81 1 44.46 5.149 69 5c24.54-.149 54.33-4.452 80 2s47.219 23.66 72 22c24.781-1.66 52.795-22.189 78-26s47.603 9.094 110 22l-40 875H0Z" fill="url(#c)"/><path d="M0 700c25.72 13.329 51.44 26.658 77 21 25.56-5.658 50.958-30.301 76-29 25.042 1.301 49.729 28.548 74 29 24.271.452 48.127-25.892 73-30 24.873-4.108 50.763 14.02 75 15 24.237.98 46.822-15.188 70-24 23.178-8.812 46.948-10.268 70-2s45.387 26.262 72 31c26.613 4.738 57.504-3.778 82-3 24.496.778 42.595 10.85 66 3s52.115-33.62 78-38c25.885-4.38 48.945 12.628 74 15s52.103-9.893 76-4c23.897 5.893 44.642 29.944 68 31 23.358 1.056 49.33-20.883 76-26 26.67-5.117 54.036 6.587 80 11s50.525 1.536 74 2c23.475.464 45.864 4.27 69 4 23.136-.27 47.02-4.617 72-9 24.98-4.383 51.053-8.801 78-6 26.947 2.801 54.767 12.823 79 21 24.233 8.177 44.88 14.51 69 6 24.12-8.51 51.712-31.866 76-41 24.288-9.134 45.273-4.046 71 2 25.727 6.046 56.196 13.05 81 21 24.804 7.95 43.944 16.843 67 17 23.056.157 50.028-8.421 117-17l-40 700H0Z" fill="url(#d)"/><path d="M0 875c25.014-9.257 50.029-18.515 74-12 23.971 6.515 46.9 28.801 72 30 25.1 1.199 52.372-18.69 77-29 24.628-10.31 46.613-11.043 70-3s48.175 24.86 74 26c25.825 1.14 52.688-13.398 78-21 25.312-7.602 49.074-8.27 73 2 23.926 10.27 48.015 31.474 74 29s53.865-28.628 79-28c25.135.628 47.525 28.038 70 27 22.475-1.038 45.037-30.523 70-37s52.329 10.053 79 15c26.671 4.947 52.65-1.691 76-8s44.074-12.29 69-16c24.926-3.71 54.053-5.15 78 0 23.947 5.15 42.714 16.892 66 16 23.286-.892 51.091-14.417 77-16 25.909-1.583 49.922 8.776 74 20 24.078 11.224 48.22 23.312 75 16 26.78-7.312 56.195-34.025 81-35 24.805-.975 45 23.786 69 36 24 12.214 51.805 11.88 78 4 26.195-7.88 50.779-23.305 75-32 24.221-8.695 48.08-10.66 72-4s47.902 21.947 71 32 45.314 14.872 70 12 51.843-13.436 119-24l-40 525H0Z" fill="url(#e)"/><path d="M0 1050c26.601 6.474 53.203 12.948 78 8 24.797-4.948 47.79-21.32 70-23 22.21-1.68 43.634 11.33 69 12 25.366.67 54.674-10.998 79-7 24.326 3.998 43.671 23.662 69 18 25.329-5.662 56.642-36.651 84-32 27.358 4.651 50.76 44.942 73 49 22.24 4.058 43.318-28.118 68-40 24.682-11.882 52.967-3.469 78 7s46.815 22.993 71 23c24.185.007 50.772-12.505 75-22s46.095-15.975 72-13c25.905 2.975 55.848 15.405 81 26s45.513 19.355 69 18c23.487-1.355 50.1-12.825 74-11 23.9 1.825 45.084 16.946 71 10 25.916-6.946 56.562-35.96 83-48 26.438-12.04 48.666-7.107 71 2 22.334 9.107 44.773 22.388 69 21 24.227-1.388 50.243-17.446 76-17 25.757.446 51.255 17.395 77 18 25.745.605 51.737-15.134 76-22 24.263-6.866 46.797-4.86 69 0 22.203 4.86 44.075 12.57 70 20 25.925 7.43 55.903 14.577 82 20s48.313 9.12 72 6c23.687-3.12 48.843-13.06 114-23l-40 350H0Z" fill="url(#f)"/><path d="M0 1225c23.871 9.3 47.743 18.6 73 17 25.257-1.6 51.9-14.1 76-22s45.658-11.203 69-9c23.342 2.203 48.468 9.911 74 11 25.532 1.089 51.47-4.441 78-1s53.65 15.855 79 21 48.926 3.022 71-5c22.074-8.022 42.645-21.944 67-23 24.355-1.056 52.496 10.752 80 17 27.504 6.248 54.373 6.934 77 4 22.627-2.934 41.011-9.489 65-12 23.989-2.511 53.581-.98 79 3 25.419 3.98 46.665 10.408 70 8 23.335-2.408 48.76-13.653 73-15 24.24-1.347 47.292 7.203 74 6 26.708-1.203 57.07-12.16 83-12 25.93.16 47.426 11.434 70 6 22.574-5.434 46.224-27.576 70-19 23.776 8.576 47.676 47.872 74 50 26.324 2.128 55.07-32.912 81-37 25.93-4.088 49.042 22.775 73 26 23.958 3.225 48.762-17.188 72-19 23.238-1.812 44.912 14.976 71 20 26.088 5.024 56.59-1.715 81-14 24.41-12.285 42.726-30.115 67-26 24.274 4.115 54.507 30.176 81 38 26.493 7.824 49.247-2.588 112-13l-40 175H0Z" fill="url(#g)"/></svg>